<?xml version="1.0" encoding="UTF-8"?>
<svg version="1.1" xmlns="http://www.w3.org/2000/svg" width="194" height="143">
<path d="M0 0 C64.02 0 128.04 0 194 0 C194 47.19 194 94.38 194 143 C129.98 143 65.96 143 0 143 C0 95.81 0 48.62 0 0 Z " fill="#F0FCF0" transform="translate(0,0)"/>
<path d="M0 0 C1.02867188 -0.01224609 2.05734375 -0.02449219 3.1171875 -0.03710938 C8.41324714 -0.0473466 12.63897793 0.22377438 17.625 2.1875 C21.06801451 2.53773768 24.47158371 2.76420814 27.625 1.1875 C39.70607152 -0.00834595 50.78852461 0.43442739 61.625 6.1875 C62.5015625 6.63351563 63.378125 7.07953125 64.28125 7.5390625 C74.86495495 13.38623283 83.06319946 21.41381353 88.625 32.1875 C88.625 32.8475 88.625 33.5075 88.625 34.1875 C94.565 34.8475 100.505 35.5075 106.625 36.1875 C102.8561658 38.0719171 100.94487525 38.52179462 96.875 38.8125 C95.89015625 38.88726562 94.9053125 38.96203125 93.890625 39.0390625 C93.14296875 39.08804688 92.3953125 39.13703125 91.625 39.1875 C91.955 40.1775 92.285 41.1675 92.625 42.1875 C92.69470052 44.58240986 92.70948003 46.97917691 92.6875 49.375 C92.67847656 50.64730469 92.66945312 51.91960938 92.66015625 53.23046875 C92.64275391 54.69419922 92.64275391 54.69419922 92.625 56.1875 C93.69814453 56.22508423 93.69814453 56.22508423 94.79296875 56.26342773 C98.0704547 56.38029152 101.34771616 56.50260423 104.625 56.625 C105.75035156 56.66431641 106.87570313 56.70363281 108.03515625 56.74414062 C113.95661908 56.96922547 119.76022862 57.33222084 125.625 58.1875 C116.83980692 63.44579075 102.659299 61.31398276 92.625 61.1875 C91.965 64.4875 91.305 67.7875 90.625 71.1875 C92.935 71.1875 95.245 71.1875 97.625 71.1875 C97.625 71.5175 97.625 71.8475 97.625 72.1875 C96.42875 72.125625 95.2325 72.06375 94 72 C91.72934737 72.15937121 91.72934737 72.15937121 89.625 73.1875 C87.81199246 75.78197631 86.54919575 78.47088773 85.18359375 81.32421875 C81.63075815 87.85110721 75.19607036 92.02365131 68.625 95.1875 C63.70080523 96.23751212 58.76388044 96.49080788 53.75 96.75 C52.96625 96.79318359 52.1825 96.83636719 51.375 96.88085938 C49.45849351 96.98603351 47.54176667 97.08717925 45.625 97.1875 C47.275 100.4875 48.925 103.7875 50.625 107.1875 C51.91535156 106.62160156 53.20570312 106.05570312 54.53515625 105.47265625 C56.25241263 104.73132699 57.96987134 103.9904663 59.6875 103.25 C60.53505859 102.87681641 61.38261719 102.50363281 62.25585938 102.11914062 C67.10452688 100.04114027 71.36103166 98.63747287 76.625 98.1875 C78.21400583 100.20408183 79.79617615 102.22546886 81.375 104.25 C81.8184375 104.81138672 82.261875 105.37277344 82.71875 105.95117188 C85.75489095 109.85797089 88.39147637 113.76340511 90.625 118.1875 C89.875 120.625 89.875 120.625 88.625 122.1875 C84.05409241 121.44291777 81.45477904 118.72624942 78.0390625 115.78125 C74.96684801 113.75299189 73.33448732 113.22663879 69.625 113.1875 C66.19257476 114.23159795 62.95963178 115.66185164 59.6875 117.125 C48.08480599 122.28462414 48.08480599 122.28462414 42.625 121.1875 C39.96188581 119.30749921 37.8650853 117.03805741 35.6875 114.625 C34.46270281 113.33295968 33.23615394 112.04257752 32.0078125 110.75390625 C31.42547852 110.13402832 30.84314453 109.51415039 30.24316406 108.87548828 C27.23685204 105.73945308 23.95258089 102.96997595 20.625 100.1875 C19.75875 99.3625 18.8925 98.5375 18 97.6875 C15.74474747 95.95061209 15.74474747 95.95061209 13.15625 96.27734375 C8.02673418 97.59944241 3.48921473 99.91571198 -1.25 102.25 C-2.22453125 102.72244141 -3.1990625 103.19488281 -4.203125 103.68164062 C-6.59716874 104.84345597 -8.98754494 106.0122207 -11.375 107.1875 C-10.56933594 107.93515625 -9.76367188 108.6828125 -8.93359375 109.453125 C-7.89258446 110.44724198 -6.85225476 111.44207096 -5.8125 112.4375 C-5.27947266 112.92863281 -4.74644531 113.41976562 -4.19726562 113.92578125 C-0.40185878 117.59875562 -0.40185878 117.59875562 -0.27734375 120.328125 C-3.70069118 126.127105 -11.42134141 130.32516414 -17.375 133.1875 C-20.3125 133.4375 -20.3125 133.4375 -22.375 133.1875 C-23.1875 131 -23.1875 131 -23.375 128.1875 C-21.0625 125.5625 -21.0625 125.5625 -18.375 123.1875 C-17.715 122.1975 -17.055 121.2075 -16.375 120.1875 C-20.14839973 115.23491286 -24.28289714 111.75070845 -29.375 108.1875 C-27.0633091 103.56411821 -23.75794673 99.93037634 -19.375 97.1875 C-18.055 97.1875 -16.735 97.1875 -15.375 97.1875 C-15.375 96.5275 -15.375 95.8675 -15.375 95.1875 C-16.055625 94.98125 -16.73625 94.775 -17.4375 94.5625 C-21.27144155 92.76788906 -24.56212848 90.37325938 -27.375 87.1875 C-27.375 86.1975 -27.375 85.2075 -27.375 84.1875 C-28.2 84.14625 -29.025 84.105 -29.875 84.0625 C-35.90642487 82.55464378 -39.85246962 79.63897513 -43.1484375 74.33203125 C-49.30426696 62.24558561 -51.8287187 50.06809941 -48.5 36.6640625 C-47.31146548 33.68490689 -45.96627519 30.97122444 -44.375 28.1875 C-43.85550781 27.24519531 -43.33601563 26.30289063 -42.80078125 25.33203125 C-36.00720694 13.85104902 -26.56544229 4.63218447 -13.51831055 0.6159668 C-9.08181886 -0.27092726 -4.50777184 0.00280334 0 0 Z " fill="#A10C72" transform="translate(64.375,5.8125)"/>
<path d="M0 0 C0.3125 2.25 0.3125 2.25 0 5 C-2.5 7.3125 -2.5 7.3125 -5 9 C-1.37 8.67 2.26 8.34 6 8 C6.33 7.01 6.66 6.02 7 5 C16.61779824 9.71075832 21.96767753 17.20245615 26 27 C27.26516157 30.77130966 27.23853919 34.54504323 27.3125 38.5 C27.36857422 40.46453125 27.36857422 40.46453125 27.42578125 42.46875 C27 46 27 46 25.359375 48.359375 C22.5712236 50.29815578 20.24666703 51.01189583 16.9375 51.75 C15.89464844 51.99234375 14.85179687 52.2346875 13.77734375 52.484375 C11 53 11 53 8 53 C10.58573776 56.23897677 13.22622856 56.79301935 17.1875 57.6875 C18.27417969 57.93886719 19.36085938 58.19023438 20.48046875 58.44921875 C21.31191406 58.63097656 22.14335937 58.81273437 23 59 C18.0461328 67.46285647 10.37484373 73.91181618 1 77 C-4.87079899 77.75752245 -9.57626448 77.42461426 -15 75 C-14.34 71.7 -13.68 68.4 -13 65 C-11.64455078 64.92652344 -11.64455078 64.92652344 -10.26171875 64.8515625 C-9.08222656 64.77679688 -7.90273437 64.70203125 -6.6875 64.625 C-4.92986328 64.52058594 -4.92986328 64.52058594 -3.13671875 64.4140625 C0.15699887 64.21386253 0.15699887 64.21386253 3 62 C2.27554688 61.82984375 1.55109375 61.6596875 0.8046875 61.484375 C-4.88486028 60.05819502 -9.4292887 58.72873816 -14 55 C-16.13776147 50.72447706 -15.70526689 45.61892001 -15 41 C-11.9966374 35.52276936 -7.75026625 32.31685485 -2 30 C1.6484375 29.70703125 1.6484375 29.70703125 5.375 29.8125 C6.62023437 29.83957031 7.86546875 29.86664063 9.1484375 29.89453125 C10.08945313 29.92933594 11.03046875 29.96414062 12 30 C12 29.34 12 28.68 12 28 C6.4583095 25.6035933 0.9330968 25.05235259 -5 26 C-8.37925096 27.57874381 -11.13494965 29.62911532 -14 32 C-14.62390625 32.49886719 -15.2478125 32.99773438 -15.890625 33.51171875 C-17.28312188 34.64718933 -18.64565246 35.81928676 -20 37 C-20.99 36.34 -21.98 35.68 -23 35 C-23.40843923 32.28796348 -23.13336867 29.7562858 -23 27 C-24.65 27.33 -26.3 27.66 -28 28 C-28.68198541 33.62008531 -28.68198541 33.62008531 -26.8515625 38.7578125 C-26.15160156 39.49644531 -26.15160156 39.49644531 -25.4375 40.25 C-24.633125 41.1575 -23.82875 42.065 -23 43 C-23.34765625 45.671875 -23.34765625 45.671875 -24 48 C-32.01426231 48.48817841 -37.94912244 47.98837518 -45 44 C-43.55083135 47.98521379 -42.19113351 50.2292255 -38.4375 52.125 C-34.39103531 53.92676535 -30.24895415 55.51664566 -26.1015625 57.0703125 C-24 58 -24 58 -22 60 C-22.08185912 64.3385335 -22.56996395 66.46536059 -25.3125 69.875 C-30.6624417 74.10518646 -37.43086955 73.73348573 -44 73 C-49.05099215 71.23929076 -53.36306705 68.96228159 -57 65 C-56.5359375 66.051875 -56.5359375 66.051875 -56.0625 67.125 C-54.96602262 70.09193879 -54.47940637 72.88169909 -54 76 C-68.67676179 77.20395312 -68.67676179 77.20395312 -73.625 73.125 C-78.75008364 67.56350094 -82.19355946 61.31718536 -82.625 53.6875 C-82.40422268 50.4066464 -82.01612507 49.02747235 -80.3125 46.125 C-76.10027333 43.42281685 -71.89133943 42.30222041 -67.05859375 41.08984375 C-63.76937602 39.91782364 -62.23825077 38.63227046 -60 36 C-60.79857422 36.24363281 -60.79857422 36.24363281 -61.61328125 36.4921875 C-64.51677413 37.10995194 -67.22031678 37.13222822 -70.1875 37.125 C-71.78658203 37.12886719 -71.78658203 37.12886719 -73.41796875 37.1328125 C-76 37 -76 37 -77 36 C-77.77153929 31.99325617 -77.81076591 28.44891715 -75.7890625 24.8359375 C-70.80795548 18.77909844 -64.61197656 13.77051051 -56.75 12.45703125 C-49.51190741 12.14706664 -44.56282322 13.29428852 -39 18 C-39.32960216 12.98464948 -39.32960216 12.98464948 -42 9 C-42.4375 6.125 -42.4375 6.125 -42 3 C-31.97230958 -7.63542923 -12.19299797 -6.09649899 0 0 Z " fill="#F964B2" transform="translate(122,18)"/>
<path d="M0 0 C0.92232422 0.01353516 1.84464844 0.02707031 2.79492188 0.04101562 C5.05140383 0.07609047 7.30663226 0.12523613 9.5625 0.1875 C6.28766077 8.35585865 6.28766077 8.35585865 1.83984375 10.5 C-0.24580445 11.13281361 -2.34009879 11.7377108 -4.44140625 12.31640625 C-14.86734214 15.34767575 -21.03747655 23.92080304 -27.4375 32.1875 C-30.81742169 31.64978519 -34.12487889 31.04446068 -37.4375 30.1875 C-37.0765625 30.73019531 -36.715625 31.27289063 -36.34375 31.83203125 C-35.8796875 32.54746094 -35.415625 33.26289062 -34.9375 34 C-34.4734375 34.70769531 -34.009375 35.41539063 -33.53125 36.14453125 C-32.4375 38.1875 -32.4375 38.1875 -32.4375 41.1875 C-31.4475 41.5175 -30.4575 41.8475 -29.4375 42.1875 C-30.44661458 43.84765625 -31.45572917 45.5078125 -32.46484375 47.16796875 C-34.62213912 51.6471724 -34.54947027 56.10244303 -34.5 61 C-34.48646484 62.74216797 -34.48646484 62.74216797 -34.47265625 64.51953125 C-34.46105469 65.39996094 -34.44945312 66.28039062 -34.4375 67.1875 C-39.85452393 64.72626195 -42.50392376 60.92588335 -45.25 55.8125 C-48.1907998 47.02390289 -47.67182452 35.72949969 -43.69921875 27.421875 C-39.72928138 20.39152152 -34.93276941 11.9351347 -27.4375 8.1875 C-25.4000237 7.95891886 -23.35709697 7.77725722 -21.3125 7.625 C-20.21679688 7.54121094 -19.12109375 7.45742188 -17.9921875 7.37109375 C-17.14914063 7.31050781 -16.30609375 7.24992187 -15.4375 7.1875 C-16.0975 5.8675 -16.7575 4.5475 -17.4375 3.1875 C-11.48398507 0.0759922 -6.64865854 -0.1866794 0 0 Z " fill="#F560AF" transform="translate(67.4375,13.8125)"/>
<path d="M0 0 C1.7578125 0.9765625 1.7578125 0.9765625 4.8828125 3.2265625 C5.8315625 3.8040625 6.7803125 4.3815625 7.7578125 4.9765625 C12.07827945 8.0872987 15.95952688 11.63457655 19.8828125 15.2265625 C19.2228125 16.5465625 18.5628125 17.8665625 17.8828125 19.2265625 C10.67472835 19.74142565 5.54634013 18.29919857 -0.0546875 13.6015625 C-3.38699677 11.38002298 -7.2193449 10.934504 -11.1171875 10.2265625 C-11.03339844 11.15339844 -10.94960938 12.08023438 -10.86328125 13.03515625 C-10.76144531 14.23269531 -10.65960938 15.43023437 -10.5546875 16.6640625 C-10.45027344 17.85902344 -10.34585938 19.05398437 -10.23828125 20.28515625 C-10.19832031 21.25582031 -10.15835938 22.22648437 -10.1171875 23.2265625 C-11.1171875 24.2265625 -11.1171875 24.2265625 -13.3671875 24.6640625 C-16.62019553 24.14653849 -18.17906732 23.04388632 -20.15234375 20.40234375 C-22.31843219 15.51768278 -22.11159729 10.38833438 -21.1171875 5.2265625 C-17.08529733 -2.36047406 -7.37899923 -2.69564916 0 0 Z " fill="#FD8ACA" transform="translate(66.1171875,63.7734375)"/>
<path d="M0 0 C7.98531811 6.82381729 7.98531811 6.82381729 8.3125 10.75 C8.47756787 13.73260562 8.00835073 14.98554267 6.48828125 17.6171875 C2.75295786 21.19418478 -1.38143097 21.78258332 -6.33203125 22.8515625 C-8.74269023 23.41178239 -8.74269023 23.41178239 -12 25 C-13.60507631 28.53305356 -13.60507631 28.53305356 -14 32 C-13.34 32.33 -12.68 32.66 -12 33 C-12.33 33.66 -12.66 34.32 -13 35 C-16.64354222 35.28027248 -19.177046 35.44312908 -22.4375 33.6875 C-24.99728915 29.28466266 -24.91950081 24.94323636 -24 20 C-19.5632922 14.04213524 -11.98516089 12.66935087 -5 11 C-4.01 11 -3.02 11 -2 11 C-1.34 7.37 -0.68 3.74 0 0 Z " fill="#FD8CCB" transform="translate(137,40)"/>
<path d="M0 0 C2.3203125 1.14453125 2.3203125 1.14453125 4 3 C4.390625 5.91796875 4.390625 5.91796875 4.25 9.1875 C4.21390625 10.27417969 4.1778125 11.36085938 4.140625 12.48046875 C4.07101563 13.72763672 4.07101563 13.72763672 4 15 C5.13179687 14.96519531 6.26359375 14.93039063 7.4296875 14.89453125 C8.91144353 14.86639664 10.39321556 14.83909613 11.875 14.8125 C12.99455078 14.77479492 12.99455078 14.77479492 14.13671875 14.73632812 C16.3046875 14.70703125 16.3046875 14.70703125 20 15 C20.66 15.99 21.32 16.98 22 18 C19.31707555 19.01401869 16.62974283 20.01128551 13.9375 21 C12.80924805 21.42925781 12.80924805 21.42925781 11.65820312 21.8671875 C6.96512703 23.57376062 3.07083962 24.47984927 -2 24 C-5.01584021 21.29614326 -5.87214625 17.81735114 -7 14 C-10.3 14 -13.6 14 -17 14 C-17.72051929 5.95420123 -17.72051929 5.95420123 -14.6875 1.9375 C-10.36835279 -1.04157767 -5.00906538 -0.90798768 0 0 Z " fill="#FE8AC9" transform="translate(108,18)"/>
<path d="M0 0 C1.2890625 0.0103125 2.578125 0.020625 3.90625 0.03125 C8.85335153 0.67652411 11.32037468 1.98193748 14.37890625 5.91796875 C14.93449219 6.83191406 15.49007812 7.74585938 16.0625 8.6875 C16.65289062 9.656875 17.24328125 10.62625 17.8515625 11.625 C19.89506481 15.18902299 21.74750175 18.7847037 23.5 22.5 C18.63201562 23.10849805 16.30412512 22.71277695 12.375 19.6875 C11.75367187 19.16542969 11.13234375 18.64335938 10.4921875 18.10546875 C5.46783295 14.05643008 1.47294725 12.92475536 -4.8125 12.3125 C-5.55306641 12.23064453 -6.29363281 12.14878906 -7.05664062 12.06445312 C-8.86994923 11.86557412 -10.68484969 11.68130173 -12.5 11.5 C-12.9588485 7.55390294 -12.81499309 5.94099033 -10.46875 2.65625 C-6.72304019 -0.06431817 -4.59028757 -0.1101669 0 0 Z " fill="#FD94CF" transform="translate(65.5,37.5)"/>
<path d="M0 0 C3.98961991 0.52640818 6.05957537 1.52299329 9 4.25 C10.0209375 5.18779297 10.0209375 5.18779297 11.0625 6.14453125 C13.41364924 8.39613587 15.73368423 10.66286186 18 13 C17.01 14.485 17.01 14.485 16 16 C9.59873172 16.77256686 5.41692834 15.38405861 0 12 C-1.0209375 11.1646875 -1.0209375 11.1646875 -2.0625 10.3125 C-4.87932955 8.40432514 -7.66662176 8.32051714 -11 8 C-7.25 6 -7.25 6 -5 6 C-5 5.01 -5 4.02 -5 3 C-4.360625 2.87625 -3.72125 2.7525 -3.0625 2.625 C-2.381875 2.41875 -1.70125 2.2125 -1 2 C-0.67 1.34 -0.34 0.68 0 0 Z " fill="#FE89CA" transform="translate(68,67)"/>
<path d="M0 0 C1.8871875 0.061875 1.8871875 0.061875 3.8125 0.125 C3.8125 3.425 3.8125 6.725 3.8125 10.125 C-1.72915256 13.89804004 -5.53204208 14.66830269 -12.1875 14.125 C-12.69111366 9.89464527 -12.39679985 8.41915114 -9.875 4.875 C-6.57322258 1.49643706 -4.69928378 -0.15407488 0 0 Z " fill="#FD90CB" transform="translate(44.1875,25.875)"/>
<path d="M0 0 C1.04929687 -0.02578125 2.09859375 -0.0515625 3.1796875 -0.078125 C6.43056586 0.28404182 7.74850767 1.06867854 10.125 3.25 C9.795 4.57 9.465 5.89 9.125 7.25 C7.805 7.25 6.485 7.25 5.125 7.25 C5.125 8.24 5.125 9.23 5.125 10.25 C0.505 10.25 -4.115 10.25 -8.875 10.25 C-8.2890625 3.31640625 -8.2890625 3.31640625 -7.875 1.25 C-5.18393093 -0.09553453 -3.00334578 0.04405886 0 0 Z " fill="#FD99D2" transform="translate(57.875,62.75)"/>
<path d="M0 0 C-0.4979837 3.73487777 -0.87491756 5.81237635 -3 9 C-6.47325181 10.1577506 -9.36067448 10.06866652 -13 10 C-12.61791476 7.37672817 -12.19575173 6.19530378 -10.29296875 4.296875 C-9.59816406 3.78640625 -8.90335937 3.2759375 -8.1875 2.75 C-7.50042969 2.22921875 -6.81335938 1.7084375 -6.10546875 1.171875 C-4 0 -4 0 0 0 Z " fill="#FE86C7" transform="translate(135,80)"/>
<path d="M0 0 C-2.1385485 2.1385485 -3.13275314 2.42655063 -6 3 C-6.33 4.32 -6.66 5.64 -7 7 C-5.68 7.66 -4.36 8.32 -3 9 C-3.33 9.66 -3.66 10.32 -4 11 C-7.3 11 -10.6 11 -14 11 C-14.45291114 7.10496422 -14.28517401 5.42316144 -12.0625 2.125 C-7.9563259 -0.72418203 -4.84435994 -0.47493725 0 0 Z " fill="#FE89C9" transform="translate(67,38)"/>
<path d="M0 0 C2.72675159 2.40689803 4.11966596 4.92471023 5.6875 8.1875 C6.34298828 9.53908203 6.34298828 9.53908203 7.01171875 10.91796875 C7.33785156 11.60503906 7.66398437 12.29210938 8 13 C3.42010577 13.46733615 0.75145487 13.17261016 -2.9375 10.5 C-3.948125 9.675 -4.95875 8.85 -6 8 C-5.01 7.67 -4.02 7.34 -3 7 C-2.34 7.33 -1.68 7.66 -1 8 C-0.67 5.36 -0.34 2.72 0 0 Z " fill="#FE85C7" transform="translate(81,47)"/>
<path d="M0 0 C3.6875 0.3125 3.6875 0.3125 6.125 2.3125 C6.8984375 3.3025 6.8984375 3.3025 7.6875 4.3125 C4.59861478 6.37175681 3.97814073 6.5515374 0.5 6.4375 C-1.3871875 6.375625 -1.3871875 6.375625 -3.3125 6.3125 C-3.69468767 4.65635343 -4.02645102 2.98792976 -4.3125 1.3125 C-3.3125 0.3125 -3.3125 0.3125 0 0 Z " fill="#FE9AD0" transform="translate(61.3125,15.6875)"/>
<path d="M0 0 C-1.25662962 3.87460798 -2.39604563 5.9860255 -6 8 C-7.32 8 -8.64 8 -10 8 C-9.64505955 5.37344067 -9.27538036 3.42031739 -7.8125 1.1875 C-5.20638339 -0.51995571 -3.0400645 -0.20267097 0 0 Z " fill="#FEE5F4" transform="translate(59,65)"/>
<path d="M0 0 C0 3 0 3 -1.57421875 4.8671875 C-2.27160156 5.52976562 -2.96898437 6.19234375 -3.6875 6.875 C-4.41324219 7.57367188 -5.13898437 8.27234375 -5.88671875 8.9921875 C-6.93279297 9.98605469 -6.93279297 9.98605469 -8 11 C-9.00356927 11.99641794 -10.00431338 12.99570514 -11 14 C-11.66 14.66 -12.32 15.32 -13 16 C-13 11.08924079 -9.30469813 8.39044878 -6 5 C-4.05397986 3.23549584 -2.07285289 1.6178364 0 0 Z " fill="#AA2C82" transform="translate(38,13)"/>
<path d="M0 0 C1.65 0 3.3 0 5 0 C5 2.64 5 5.28 5 8 C3.35 8 1.7 8 0 8 C0 5.36 0 2.72 0 0 Z " fill="#FE97D3" transform="translate(25,51)"/>
<path d="M0 0 C1.32 0.33 2.64 0.66 4 1 C3.34 2.65 2.68 4.3 2 6 C-0.875 6.1875 -0.875 6.1875 -4 6 C-4.66 5.01 -5.32 4.02 -6 3 C-4.35 3 -2.7 3 -1 3 C-0.67 2.01 -0.34 1.02 0 0 Z " fill="#FD74BE" transform="translate(125,72)"/>
<path d="M0 0 C1.4540625 0.0309375 1.4540625 0.0309375 2.9375 0.0625 C2.6075 1.3825 2.2775 2.7025 1.9375 4.0625 C-0.3725 4.3925 -2.6825 4.7225 -5.0625 5.0625 C-3.9375 0.08035714 -3.9375 0.08035714 0 0 Z " fill="#FFE2F2" transform="translate(100.0625,21.9375)"/>
<path d="M0 0 C-0.33 0.99 -0.66 1.98 -1 3 C-1.77085937 3.06058594 -2.54171875 3.12117188 -3.3359375 3.18359375 C-4.33882812 3.26738281 -5.34171875 3.35117188 -6.375 3.4375 C-7.87160156 3.55931641 -7.87160156 3.55931641 -9.3984375 3.68359375 C-11.97927613 3.84965626 -11.97927613 3.84965626 -14 5 C-13.5 3.0625 -13.5 3.0625 -12 1 C-7.84152793 0.19513444 -4.23279988 0 0 0 Z " fill="#D4A5C3" transform="translate(166,77)"/>
<path d="M0 0 C1.98 0 3.96 0 6 0 C6.33 1.32 6.66 2.64 7 4 C4.03 4 1.06 4 -2 4 C-1.34 2.68 -0.68 1.36 0 0 Z " fill="#FEEBF5" transform="translate(61,40)"/>
<path d="M0 0 C0.33 0 0.66 0 1 0 C1 1.65 1 3.3 1 5 C2.65 5 4.3 5 6 5 C5.34 6.98 4.68 8.96 4 11 C3.01 10.67 2.02 10.34 1 10 C-0.1577506 6.52674819 -0.06866652 3.63932552 0 0 Z " fill="#FE80C8" transform="translate(24,54)"/>
<path d="M0 0 C1.65 0 3.3 0 5 0 C4.1875 2.4375 4.1875 2.4375 3 5 C2.01 5.33 1.02 5.66 0 6 C0 4.02 0 2.04 0 0 Z " fill="#FEEAF6" transform="translate(116,60)"/>
<path d="M0 0 C0.66 0 1.32 0 2 0 C2 1.65 2 3.3 2 5 C0.68 5.33 -0.64 5.66 -2 6 C-1.125 1.125 -1.125 1.125 0 0 Z " fill="#FEDCF1" transform="translate(27,52)"/>
</svg>
