<?xml version="1.0" encoding="UTF-8"?>
<svg version="1.1" xmlns="http://www.w3.org/2000/svg" width="600" height="480">
<path d="M0 0 C198 0 396 0 600 0 C600 158.4 600 316.8 600 480 C402 480 204 480 0 480 C0 321.6 0 163.2 0 0 Z " fill="#F1FEF1" transform="translate(0,0)"/>
<path d="M0 0 C1.29067383 -0.0309375 1.29067383 -0.0309375 2.60742188 -0.0625 C8.00262753 -0.09502573 12.31463785 0.62014145 17.33398438 2.62695312 C21.02233473 3.78843759 24.45968255 2.81786575 28.05859375 1.71484375 C35.98912588 0.0792574 45.69350136 0.41502376 53.3125 3.25 C54.24578125 3.58 55.1790625 3.91 56.140625 4.25 C69.20855416 9.24076691 80.81748526 18.67810452 87.3125 31.25 C87.6425 32.24 87.9725 33.23 88.3125 34.25 C94.2525 34.91 100.1925 35.57 106.3125 36.25 C106.3125 36.58 106.3125 36.91 106.3125 37.25 C98.3925 37.745 98.3925 37.745 90.3125 38.25 C90.6425 39.36375 90.9725 40.4775 91.3125 41.625 C92.17322869 45.00396204 92.42122831 48.0546038 92.375 51.5390625 C92.36597656 52.4254541 92.35695313 53.3118457 92.34765625 54.22509766 C92.33025391 55.22742432 92.33025391 55.22742432 92.3125 56.25 C92.95687012 56.27505615 93.60124023 56.3001123 94.26513672 56.32592773 C97.23938924 56.44335346 100.21343571 56.565403 103.1875 56.6875 C104.20070313 56.72681641 105.21390625 56.76613281 106.2578125 56.80664062 C112.63991336 57.07256149 118.96501529 57.53289437 125.3125 58.25 C125.3125 58.58 125.3125 58.91 125.3125 59.25 C114.27735916 60.48223906 103.43106481 61.61520833 92.3125 61.25 C91.6525 64.55 90.9925 67.85 90.3125 71.25 C92.9525 71.25 95.5925 71.25 98.3125 71.25 C97.9825 71.91 97.6525 72.57 97.3125 73.25 C94.3425 73.25 91.3725 73.25 88.3125 73.25 C87.94898438 74.57644531 87.94898438 74.57644531 87.578125 75.9296875 C84.53325134 83.91778197 77.01220351 90.69072136 69.3203125 94.14453125 C61.22270716 97.13001201 52.80319245 96.51594976 44.3125 96.25 C46.2925 100.21 48.2725 104.17 50.3125 108.25 C51.68664062 107.61191406 53.06078125 106.97382813 54.4765625 106.31640625 C56.29670206 105.48139377 58.11702423 104.64677923 59.9375 103.8125 C60.84113281 103.39162109 61.74476563 102.97074219 62.67578125 102.53710938 C67.21809719 100.46488495 71.27631454 98.71011661 76.3125 98.25 C78.2753813 100.99677958 80.23199114 103.74796808 82.1875 106.5 C82.74308594 107.27730469 83.29867187 108.05460937 83.87109375 108.85546875 C84.40605469 109.60957031 84.94101562 110.36367187 85.4921875 111.140625 C85.98444824 111.83188477 86.47670898 112.52314453 86.98388672 113.23535156 C88.2683321 115.18302581 89.31662271 117.14254184 90.3125 119.25 C89.6525 120.24 88.9925 121.23 88.3125 122.25 C84.11151519 121.74197393 82.15294712 119.35305408 79.1875 116.5 C75.48709417 113.25002028 75.48709417 113.25002028 70.8984375 112.11328125 C68.20489432 112.9195425 65.83806941 114.00998395 63.3125 115.25 C61.38821105 116.06605159 59.45318186 116.84999703 57.51269531 117.62670898 C56.19454396 118.157711 54.88227623 118.70361691 53.57714844 119.26586914 C50.0477424 120.75107531 47.14491647 121.87326496 43.3125 121.25 C41.57421875 119.96484375 41.57421875 119.96484375 40 118.1875 C37.59483674 115.60091279 35.17766814 113.18016995 32.5 110.875 C28.47387686 107.40609858 24.53821545 103.84412299 20.609375 100.265625 C19.85140625 99.60046875 19.0934375 98.9353125 18.3125 98.25 C17.29929687 97.34507812 17.29929687 97.34507812 16.265625 96.421875 C14.42285557 95.03295389 14.42285557 95.03295389 12.48168945 95.53393555 C10.06089771 96.33305566 7.91576636 97.36150432 5.65234375 98.53515625 C4.77642578 98.98310547 3.90050781 99.43105469 2.99804688 99.89257812 C1.16133885 100.84160921 -0.67459593 101.79213823 -2.50976562 102.74414062 C-3.38439453 103.19080078 -4.25902344 103.63746094 -5.16015625 104.09765625 C-6.35523804 104.7165271 -6.35523804 104.7165271 -7.57446289 105.34790039 C-9.6875 106.25 -9.6875 106.25 -12.6875 106.25 C-8.82385705 110.73717034 -4.93959792 115.12675353 -0.6875 119.25 C-2.23343577 123.8878073 -5.94652486 125.42070863 -9.9375 128 C-10.70191406 128.51949219 -11.46632812 129.03898438 -12.25390625 129.57421875 C-13.00027344 130.06019531 -13.74664062 130.54617187 -14.515625 131.046875 C-15.1952832 131.49385742 -15.87494141 131.94083984 -16.57519531 132.40136719 C-19.29165111 133.49272183 -20.91906929 133.03839304 -23.6875 132.25 C-23.6875 128.25 -23.6875 128.25 -21.9375 126.328125 C-21.195 125.72484375 -20.4525 125.1215625 -19.6875 124.5 C-18.945 123.88640625 -18.2025 123.2728125 -17.4375 122.640625 C-16.57125 121.95226562 -16.57125 121.95226562 -15.6875 121.25 C-17.21144795 117.04467528 -20.3027865 114.99995834 -23.8125 112.5 C-24.65748047 111.88318359 -24.65748047 111.88318359 -25.51953125 111.25390625 C-26.90351634 110.24523915 -28.29480541 109.24660714 -29.6875 108.25 C-27.69777225 103.73145569 -24.70627821 101.03554799 -20.6875 98.25 C-17.75 97.375 -17.75 97.375 -15.6875 97.25 C-15.6875 96.59 -15.6875 95.93 -15.6875 95.25 C-16.7084375 94.9715625 -16.7084375 94.9715625 -17.75 94.6875 C-21.82406879 92.69380676 -24.82126943 89.75225292 -27.6875 86.25 C-27.6875 85.59 -27.6875 84.93 -27.6875 84.25 C-29.1725 83.9715625 -29.1725 83.9715625 -30.6875 83.6875 C-36.93790137 81.8313202 -41.16294653 77.77442295 -44.4921875 72.26171875 C-50.25710493 60.96634225 -51.92130304 49.09819542 -48 36.8125 C-42.11227489 21.61109127 -32.82692439 9.77818363 -17.8125 2.875 C-11.80452774 0.32549148 -6.46644425 0.03789857 0 0 Z " fill="#9F0870" transform="translate(260.6875,118.75)"/>
<path d="M0 0 C0.1171875 2.38671875 0.1171875 2.38671875 0 5 C-2.04424538 6.97610386 -3.1176825 8 -6 8 C-5.505 8.99 -5.505 8.99 -5 10 C-3.741875 9.855625 -2.48375 9.71125 -1.1875 9.5625 C-0.47980469 9.48128906 0.22789062 9.40007812 0.95703125 9.31640625 C3.19396393 9.02829265 3.19396393 9.02829265 6 8 C6.33 7.01 6.66 6.02 7 5 C15.85727115 8.95624778 21.31532451 17.33374021 25 26 C26.05064506 29.32872641 26.64601722 32.53096879 27 36 C27.14115234 37.33998047 27.14115234 37.33998047 27.28515625 38.70703125 C27.65742777 45.22655556 27.65742777 45.22655556 24.875 48.5 C19.3021371 51.40758064 14.1800313 52.36068642 8 53 C8 53.66 8 54.32 8 55 C12.99296295 57.9445679 17.33557626 58.63495936 23 59 C17.51633947 67.58215164 10.05676369 73.73883265 0.1640625 76.5703125 C-5.23075274 77.6414852 -9.98641903 77.50679048 -15 75 C-14.34 71.7 -13.68 68.4 -13 65 C-12.18015625 65.02320313 -11.3603125 65.04640625 -10.515625 65.0703125 C-9.43796875 65.08835937 -8.3603125 65.10640625 -7.25 65.125 C-6.18265625 65.14820313 -5.1153125 65.17140625 -4.015625 65.1953125 C-1.04977172 65.00322356 0.55204664 64.63578192 3 63 C3.33 62.34 3.66 61.68 4 61 C3.11248047 60.92652344 3.11248047 60.92652344 2.20703125 60.8515625 C-3.93601543 60.27032807 -8.06757413 59.71771188 -12.8125 55.5 C-15.46970463 52.0304016 -15.77480921 48.82752963 -15.5546875 44.53515625 C-14.38642272 39.19569259 -11.05415103 35.57729454 -6.8125 32.3203125 C-3.07372544 30.56516555 0.22864853 30.44023441 4.3125 30.3125 C5.05306641 30.27833984 5.79363281 30.24417969 6.55664062 30.20898438 C8.37058164 30.12706446 10.18526353 30.06184178 12 30 C12 29.34 12 28.68 12 28 C10.824375 27.5359375 10.824375 27.5359375 9.625 27.0625 C7 26 7 26 5 25 C-1.68756634 23.86138418 -6.17684368 25.6145239 -11.7578125 29.265625 C-14.73555539 31.56896619 -16.81613855 33.94259397 -19 37 C-20.32 36.34 -21.64 35.68 -23 35 C-23.125 28.25 -23.125 28.25 -22 26 C-24.59060578 26.35732494 -25.84567494 26.8616396 -27.8125 28.625 C-29.5817823 32.16356461 -29.04065204 34.22763636 -28 38 C-26.7955611 39.66938394 -26.7955611 39.66938394 -25.375 41.1875 C-24.59125 42.115625 -23.8075 43.04375 -23 44 C-23.3515625 46.17578125 -23.3515625 46.17578125 -24 48 C-32.53902746 48.42381202 -38.72603202 47.84931198 -46 43 C-44.61470696 47.70267578 -44.61470696 47.70267578 -41.40625 51.21484375 C-36.59743955 53.66851957 -31.42721716 55.3490438 -26.3203125 57.0703125 C-24 58 -24 58 -22 60 C-22.14152394 63.82114638 -22.41819108 66.23118107 -24.75 69.3125 C-30.14398306 73.35798729 -35.4216263 73.78177774 -42 73 C-47.63985038 71.41430294 -52.80548562 69.19451438 -57 65 C-57 64.34 -57 63.68 -57 63 C-57.66 63 -58.32 63 -59 63 C-58.6390625 63.77085937 -58.278125 64.54171875 -57.90625 65.3359375 C-57.4421875 66.33882813 -56.978125 67.34171875 -56.5 68.375 C-56.0359375 69.37273437 -55.571875 70.37046875 -55.09375 71.3984375 C-54 74 -54 74 -54 76 C-67.56496295 76.93052337 -67.56496295 76.93052337 -73.3515625 72.62109375 C-78.69472861 67.36655836 -81.59527123 60.84492328 -82.375 53.4375 C-81.90360703 49.11639776 -81.34590474 47.80122257 -78 45 C-75.26016549 44.05110256 -72.51795213 43.34927421 -69.69921875 42.671875 C-66.44511094 41.86188 -63.79654175 40.86436117 -61 39 C-59.57442644 36.44278263 -59.57442644 36.44278263 -59 34 C-59.763125 34.495 -60.52625 34.99 -61.3125 35.5 C-66.2295387 37.50015134 -70.74612748 37.46541971 -76 37 C-77 36 -77 36 -77.5625 32.5 C-77.47969096 27.36583965 -74.89199781 24.65981149 -71.40234375 21.12109375 C-64.96546559 15.43780133 -59.41237049 12.03245416 -50.62109375 12.53125 C-45.62774033 13.42424912 -41.58044779 15.41955221 -38 19 C-37.50792727 13.71021817 -38.71680927 12.0013887 -42 8 C-42.75 5.5 -42.75 5.5 -42 3 C-29.78744616 -7.67444883 -14.00332533 -4.70276593 0 0 Z " fill="#FB66B3" transform="translate(318,131)"/>
<path d="M0 0 C8.30809157 5.65959179 12.86981269 13.96128355 14.74609375 23.71484375 C16.21128911 33.79032299 12.39556578 44.64475239 6.52734375 52.7734375 C2.71972843 56.9234042 -1.92400085 59.93820862 -7.25390625 61.71484375 C-3.33575967 63.67391704 1.46530101 63.07609208 5.74609375 62.71484375 C9.30249305 61.40280642 9.30249305 61.40280642 11.74609375 59.71484375 C15.5062856 65.70764951 15.5062856 65.70764951 16.37109375 69.33984375 C15.40251723 73.02043452 12.79163621 74.71848338 9.74609375 76.71484375 C5.31862612 79.22773079 0.70839025 79.48926275 -4.25390625 78.71484375 C-6.21458554 77.93761315 -8.15178571 77.09947863 -10.06640625 76.21484375 C-16.92938989 73.1168473 -23.89395752 72.141913 -31.1015625 74.7421875 C-31.81183594 75.06316406 -32.52210937 75.38414062 -33.25390625 75.71484375 C-35.25390625 72.71484375 -35.25390625 72.71484375 -35.25390625 70.33984375 C-33.80590755 66.53884717 -31.49429638 65.12790023 -28.25390625 62.71484375 C-29.21490234 62.29525391 -29.21490234 62.29525391 -30.1953125 61.8671875 C-41.10865829 56.80898997 -46.19023198 50.52721313 -50.50390625 39.52734375 C-52.44150856 29.67786535 -52.16364866 19.33771043 -46.96484375 10.53125 C-35.41989569 -5.79836905 -17.58247403 -10.02536214 0 0 Z " fill="#8A1466" transform="translate(138.25390625,279.28515625)"/>
<path d="M0 0 C1.93166016 0.01740234 1.93166016 0.01740234 3.90234375 0.03515625 C5.19269531 0.04417969 6.48304688 0.05320312 7.8125 0.0625 C8.81152344 0.07410156 9.81054688 0.08570313 10.83984375 0.09765625 C13.91961704 6.04724774 16.53327233 12.07168193 18.9921875 18.30078125 C19.37419815 19.25982361 19.7562088 20.21886597 20.14979553 21.20697021 C21.36227605 24.25256657 22.57002724 27.30000958 23.77734375 30.34765625 C24.97953004 33.37450759 26.1827266 36.40095415 27.3866272 39.42712402 C28.15835214 41.36701169 28.92934169 43.3071921 29.69955444 45.24768066 C32.07693528 51.22577839 34.51403408 57.17057581 37.06469727 63.07714844 C37.83984375 65.09765625 37.83984375 65.09765625 37.83984375 67.09765625 C32.22984375 67.09765625 26.61984375 67.09765625 20.83984375 67.09765625 C16.83984375 55.34765625 16.83984375 55.34765625 16.83984375 53.09765625 C8.25984375 53.09765625 -0.32015625 53.09765625 -9.16015625 53.09765625 C-10.15015625 56.39765625 -11.14015625 59.69765625 -12.16015625 63.09765625 C-12.49015625 64.08765625 -12.82015625 65.07765625 -13.16015625 66.09765625 C-18.44015625 66.09765625 -23.72015625 66.09765625 -29.16015625 66.09765625 C-28.34997726 61.23658229 -27.24192027 57.3987557 -25.3515625 52.953125 C-25.0689859 52.2738092 -24.7864093 51.59449341 -24.49526978 50.89459229 C-23.57668635 48.68905234 -22.64966862 46.48716489 -21.72265625 44.28515625 C-20.44653765 41.22897961 -19.17458718 38.1710727 -17.90234375 35.11328125 C-17.58450424 34.35111801 -17.26666473 33.58895477 -16.93919373 32.80369568 C-13.5610743 24.69058816 -10.31296673 16.52784859 -7.09399414 8.3503418 C-6.71750732 7.3994165 -6.34102051 6.44849121 -5.953125 5.46875 C-5.62852295 4.6430249 -5.3039209 3.8172998 -4.96948242 2.96655273 C-3.64081411 -0.10160894 -3.59990269 0.11124545 0 0 Z " fill="#8B1566" transform="translate(475.16015625,274.90234375)"/>
<path d="M0 0 C4.95 0 9.9 0 15 0 C15.01401855 1.99764404 15.01401855 1.99764404 15.02832031 4.03564453 C15.06827472 8.98959463 15.13404934 13.9429273 15.20751953 18.89648438 C15.23569744 21.03800509 15.25692775 23.17962918 15.27099609 25.32128906 C15.29246925 28.40483407 15.33914317 31.48714018 15.390625 34.5703125 C15.39185364 35.52366486 15.39308228 36.47701721 15.39434814 37.45925903 C15.52096555 43.24143218 16.15320285 46.59106472 20 51 C24.01844281 52.67495022 27.90040646 52.39772532 31.9375 50.9375 C35.62315515 47.47521789 36.09973834 43.24324707 36.31884766 38.37158203 C36.36013077 36.58385378 36.39135565 34.79587318 36.4140625 33.0078125 C36.43342865 32.06187225 36.4527948 31.11593201 36.4727478 30.1413269 C36.53227049 27.13597478 36.57881946 24.13058379 36.625 21.125 C36.66320492 19.08071296 36.70225811 17.03644158 36.7421875 14.9921875 C36.83794954 9.9949197 36.92208114 4.99757658 37 0 C41.95 0 46.9 0 52 0 C52.09940099 6.79520475 52.17172033 13.58997962 52.21972656 20.38574219 C52.23975417 22.69408549 52.26698439 25.00237862 52.30175781 27.31054688 C52.35066594 30.64205357 52.37305811 33.97288538 52.390625 37.3046875 C52.41127014 38.32488983 52.43191528 39.34509216 52.45318604 40.39620972 C52.4554842 47.85274752 51.34154488 55.04029396 46.38580322 60.91281128 C40.49725178 66.61940861 33.55266863 68.14643628 25.5625 68.4375 C17.78823997 68.21953009 11.05022065 66.59612715 5.5625 60.8125 C0.1521369 53.36499191 -0.43125455 45.58322794 -0.29296875 36.62109375 C-0.28660149 35.04208031 -0.28660149 35.04208031 -0.28010559 33.4311676 C-0.26343768 30.09967458 -0.2258075 26.76880732 -0.1875 23.4375 C-0.17243781 21.16602442 -0.1587521 18.89453927 -0.14648438 16.62304688 C-0.11357309 11.08179356 -0.06187342 5.54100254 0 0 Z " fill="#8B1566" transform="translate(177,275)"/>
<path d="M0 0 C17.82 0 35.64 0 54 0 C53.1638899 3.3444404 52.6207474 4.88911121 50.83984375 7.6328125 C50.38335449 8.34429443 49.92686523 9.05577637 49.45654297 9.78881836 C48.95525879 10.5597583 48.45397461 11.33069824 47.9375 12.125 C46.85400121 13.81546654 45.7720594 15.50693169 44.69140625 17.19921875 C44.10375488 18.11880371 43.51610352 19.03838867 42.91064453 19.98583984 C39.71453608 25.027899 36.57925255 30.1072591 33.45022583 35.19110107 C32.387632 36.9169829 31.32261843 38.64135587 30.25756836 40.36572266 C29.60280518 41.42968262 28.94804199 42.49364258 28.2734375 43.58984375 C27.68997559 44.53722412 27.10651367 45.48460449 26.50537109 46.46069336 C25.2441613 48.58814114 24.10604559 50.78790883 23 53 C32.9 53 42.8 53 53 53 C53 57.62 53 62.24 53 67 C34.19 67 15.38 67 -4 67 C-2.6572428 63.64310699 -1.5222499 60.99502171 0.29296875 57.98046875 C0.98060303 56.83481445 0.98060303 56.83481445 1.68212891 55.66601562 C2.17890137 54.84810547 2.67567383 54.03019531 3.1875 53.1875 C3.96359619 51.90069336 3.96359619 51.90069336 4.75537109 50.58789062 C9.77893916 42.2928517 14.92432188 34.073647 20.09838867 25.87182617 C20.70787354 24.90349854 21.3173584 23.9351709 21.9453125 22.9375 C22.48687988 22.08027344 23.02844727 21.22304688 23.58642578 20.33984375 C24.82752408 18.28549382 25.92662414 16.14675171 27 14 C18.09 14 9.18 14 0 14 C0 9.38 0 4.76 0 0 Z " fill="#8E1A6A" transform="translate(296,275)"/>
<path d="M0 0 C12.24428215 -1.92067171 12.24428215 -1.92067171 18 0 C22.37936132 3.69931416 24.82764195 9.03908741 27.140625 14.19067383 C28.0726361 16.26503634 28.0726361 16.26503634 30 19 C30.66 19 31.32 19 32 19 C33.40403557 17.30540607 33.40403557 17.30540607 34.78515625 15.09765625 C35.31560547 14.29005859 35.84605469 13.48246094 36.39257812 12.65039062 C36.94365234 11.79638672 37.49472656 10.94238281 38.0625 10.0625 C39.15674093 8.38618898 40.25175248 6.71038065 41.34765625 5.03515625 C41.83242432 4.2862915 42.31719238 3.53742676 42.81665039 2.76586914 C44 1 44 1 45 0 C47.86267567 -0.07325168 50.700719 -0.09238205 53.5625 -0.0625 C54.36880859 -0.05798828 55.17511719 -0.05347656 56.00585938 -0.04882812 C58.00393756 -0.03700518 60.00197783 -0.01906914 62 0 C60.53949402 4.34071333 58.31386489 7.36219844 55.46484375 10.92578125 C41.05795598 29.70816147 37.07630671 43.38821626 39 67 C33.72 67 28.44 67 23 67 C23.18304688 65.07285156 23.36609375 63.14570313 23.5546875 61.16015625 C24.78773876 38.10340782 17.40827351 24.40284554 3.3283844 6.44056702 C0 2.18931187 0 2.18931187 0 0 Z " fill="#8D1A69" transform="translate(367,275)"/>
<path d="M0 0 C4.36386523 3.08369075 6.70939646 5.8410042 8.7421875 10.87109375 C9.74785491 18.68087132 9.70523704 26.43437422 4.7421875 32.87109375 C0.81965074 36.55590101 -2.87828353 37.04247237 -8.1328125 37.12109375 C-9.67582031 37.15976562 -9.67582031 37.15976562 -11.25 37.19921875 C-14.7379132 36.81871913 -16.48585104 36.00082905 -19.2578125 33.87109375 C-23.72129591 28.06305484 -25.01331591 21.91711183 -24.6796875 14.70703125 C-23.84459243 9.09333661 -21.79386475 5.3687447 -17.7578125 1.43359375 C-12.58583851 -1.79889 -5.56519434 -2.78259717 0 0 Z " fill="#F1F9EF" transform="translate(127.2578125,290.12890625)"/>
<path d="M0 0 C4.95 0 9.9 0 15 0 C15 22.11 15 44.22 15 67 C10.05 67 5.1 67 0 67 C0 44.89 0 22.78 0 0 Z " fill="#8B1566" transform="translate(254,275)"/>
<path d="M0 0 C-0.61875 0.7425 -1.2375 1.485 -1.875 2.25 C-4.02797304 4.78036448 -4.02797304 4.78036448 -4.90234375 7.23046875 C-6 9 -6 9 -8.50390625 9.80078125 C-9.51324219 9.96964844 -10.52257812 10.13851562 -11.5625 10.3125 C-22.15784415 12.68251119 -27.89423385 19.44243657 -34 28 C-34.99742414 29.33526135 -35.99663862 30.66919434 -37 32 C-41.12751449 31.39301257 -44.3321148 29.96189209 -48 28 C-46.73276657 32.54091981 -45.00096864 35.39883763 -42 39 C-42 39.66 -42 40.32 -42 41 C-41.01 41.33 -40.02 41.66 -39 42 C-39.61875 42.680625 -40.2375 43.36125 -40.875 44.0625 C-44.96602081 49.71773465 -45.32579415 55.26692093 -45 62 C-44.56645435 64.84715499 -44.56645435 64.84715499 -44 67 C-48.50415134 65.49861622 -50.73070488 61.94100919 -53 58 C-56.85650559 50.14925648 -57.49541027 41.20837339 -55.0859375 32.81640625 C-51.24313584 23.08544074 -45.73627612 12.86813806 -36 8 C-33.95944995 7.92934383 -31.91665743 7.91578024 -29.875 7.9375 C-28.77929688 7.94652344 -27.68359375 7.95554688 -26.5546875 7.96484375 C-25.71164063 7.97644531 -24.86859375 7.98804688 -24 8 C-24.99 6.35 -25.98 4.7 -27 3 C-18.17773464 -0.92100683 -9.45834243 -0.2754857 0 0 Z " fill="#F763B0" transform="translate(273,127)"/>
<path d="M0 0 C0.639375 0.33 1.27875 0.66 1.9375 1 C1.9375 1.66 1.9375 2.32 1.9375 3 C2.83210938 3.07347656 3.72671875 3.14695313 4.6484375 3.22265625 C8.59124576 4.15450761 9.87262234 5.46722873 12.5625 8.4375 C15.20776206 11.32872502 17.29023718 13.48993417 20.9375 15 C20.2775 16.32 19.6175 17.64 18.9375 19 C12.91607906 19.50178508 9.04240871 18.21097669 3.9375 15 C2.7309375 13.9171875 2.7309375 13.9171875 1.5 12.8125 C-2.25956935 10.15329241 -5.50099366 10.27232874 -10.0625 10 C-9.7325 14.29 -9.4025 18.58 -9.0625 23 C-10.7125 23.33 -12.3625 23.66 -14.0625 24 C-17.15486034 21.52611173 -19.83562661 18.73838056 -20.36328125 14.6953125 C-20.40382736 5.80220009 -20.40382736 5.80220009 -17.0625 2 C-12.09854181 -2.23396434 -5.94609491 -1.94158201 0 0 Z " fill="#FE8BCB" transform="translate(261.0625,177)"/>
<path d="M0 0 C-0.61875 0.7425 -1.2375 1.485 -1.875 2.25 C-4.02797304 4.78036448 -4.02797304 4.78036448 -4.90234375 7.23046875 C-6 9 -6 9 -8.50390625 9.80078125 C-9.51324219 9.96964844 -10.52257812 10.13851562 -11.5625 10.3125 C-19.10648749 11.96076617 -23.75330856 15.69838333 -29.078125 21.11328125 C-32.74298804 24.71110411 -36.29453703 26.17852392 -41.375 26.1875 C-42.57125 26.125625 -43.7675 26.06375 -45 26 C-45 22.10313397 -44.92591421 19.99917336 -42.22265625 17.08203125 C-40.81008759 15.88402998 -39.3728902 14.71433213 -37.91015625 13.578125 C-35.76579664 11.96085755 -35.76579664 11.96085755 -34 9 C-31.3984375 8.70703125 -31.3984375 8.70703125 -28.375 8.8125 C-26.87066406 8.85310547 -26.87066406 8.85310547 -25.3359375 8.89453125 C-24.56507813 8.92933594 -23.79421875 8.96414062 -23 9 C-24.32 7.02 -25.64 5.04 -27 3 C-18.17773464 -0.92100683 -9.45834243 -0.2754857 0 0 Z " fill="#FA66B2" transform="translate(273,127)"/>
<path d="M0 0 C7.5382199 5.89947644 7.5382199 5.89947644 8.4375 11.9375 C7.83802064 16.13385549 6.29870388 17.41840566 3 20 C0.18503978 21.17835544 -2.61408181 21.9038137 -5.5703125 22.640625 C-6.92769531 23.00414062 -6.92769531 23.00414062 -8.3125 23.375 C-9.17488281 23.58898437 -10.03726562 23.80296875 -10.92578125 24.0234375 C-13.16616444 24.79407894 -13.16616444 24.79407894 -13.79296875 26.9140625 C-14.04938284 29.14819097 -14.04938284 29.14819097 -14 32 C-13.34 32 -12.68 32 -12 32 C-12.33 33.32 -12.66 34.64 -13 36 C-16.95723818 35.7716978 -19.32996194 35.54977482 -22.4375 33 C-24.59169551 28.86394463 -25.12726607 25.55737569 -24 21 C-21.11263655 16.10872012 -16.45972469 14.68994106 -11.19165039 13.26489258 C-9.82127177 12.92347161 -8.44658894 12.59885726 -7.06811523 12.29174805 C-5.36667935 11.91162405 -3.68127208 11.46119683 -2 11 C-0.85185003 8.70370006 -0.69230191 6.92301914 -0.4375 4.375 C-0.35371094 3.55773437 -0.26992188 2.74046875 -0.18359375 1.8984375 C-0.09271484 0.95871094 -0.09271484 0.95871094 0 0 Z " fill="#FE8ECC" transform="translate(333,153)"/>
<path d="M0 0 C3.0625 1.3125 3.0625 1.3125 5 4 C5.40505116 7.70408625 5.28782394 11.29026924 5 15 C6.04800781 14.96519531 7.09601563 14.93039063 8.17578125 14.89453125 C9.55467147 14.86639063 10.93357902 14.83909076 12.3125 14.8125 C13.34793945 14.77479492 13.34793945 14.77479492 14.40429688 14.73632812 C19.55674183 14.66165501 19.55674183 14.66165501 21.98046875 16.51171875 C22.31691406 17.00285156 22.65335937 17.49398437 23 18 C22.03578125 18.26554687 21.0715625 18.53109375 20.078125 18.8046875 C18.81484375 19.15789062 17.5515625 19.51109375 16.25 19.875 C14.99703125 20.22304687 13.7440625 20.57109375 12.453125 20.9296875 C9.7324945 21.77295985 7.51289942 22.72664738 5 24 C1.875 24.25 1.875 24.25 -1 24 C-3.3129482 21.6870518 -3.49580975 20.52095125 -4.125 17.375 C-4.37636719 16.14910156 -4.37636719 16.14910156 -4.6328125 14.8984375 C-4.75398438 14.27195313 -4.87515625 13.64546875 -5 13 C-5.58265625 13.16371094 -6.1653125 13.32742187 -6.765625 13.49609375 C-9.85736768 14.1933574 -12.84286393 14.06071416 -16 14 C-16.81725562 7.22845342 -16.81725562 7.22845342 -14.7578125 4.1328125 C-10.28811855 -0.1721001 -6.05848221 -1.25699351 0 0 Z " fill="#FF8BCA" transform="translate(303,131)"/>
<path d="M0 0 C4.92502116 0.09325484 8.5175198 0.43834061 12.5546875 3.34375 C16.85241007 7.98029717 19.52721798 13.81403859 22.4375 19.375 C23.0975 20.365 23.7575 21.355 24.4375 22.375 C19.18852686 22.8749022 16.44992553 21.51083707 12.4375 18.375 C11.74140625 17.77300781 11.0453125 17.17101562 10.328125 16.55078125 C3.19289608 10.80295795 -2.58557241 10.56009159 -11.5625 11.375 C-11.71484375 9.046875 -11.71484375 9.046875 -11.5625 6.375 C-9.125 3.625 -9.125 3.625 -6.5625 1.375 C-4.79549368 -0.39200632 -2.39969584 0.07808772 0 0 Z " fill="#FE96D0" transform="translate(260.5625,150.625)"/>
<path d="M0 0 C5.62012273 1.12402455 8.34279473 4.05317336 12.0703125 8.125 C13.96544748 9.9664267 15.58601884 10.9700347 18 12 C17.34 13.32 16.68 14.64 16 16 C9.97857906 16.50178508 6.10490871 15.21097669 1 12 C-0.2065625 10.9171875 -0.2065625 10.9171875 -1.4375 9.8125 C-5.08513714 7.23246398 -8.62122327 7.19079637 -13 7 C-13 6.67 -13 6.34 -13 6 C-10.36 6 -7.72 6 -5 6 C-5 5.01 -5 4.02 -5 3 C-3.68 3 -2.36 3 -1 3 C-0.67 2.01 -0.34 1.02 0 0 Z " fill="#FF8BCB" transform="translate(264,180)"/>
<path d="M0 0 C0.33 0 0.66 0 1 0 C1.03738281 0.60328125 1.07476562 1.2065625 1.11328125 1.828125 C1.49324802 6.4473289 1.75179373 9.46934101 5 13 C5 13.66 5 14.32 5 15 C5.66 15 6.32 15 7 15 C8.76615118 10.29026351 9.48594831 5.96916636 10 1 C11.32 1.66 12.64 2.32 14 3 C14 3.66 14 4.32 14 5 C14.99 5.33 15.98 5.66 17 6 C16.38125 6.680625 15.7625 7.36125 15.125 8.0625 C11.03397919 13.71773465 10.67420585 19.26692093 11 26 C11.43354565 28.84715499 11.43354565 28.84715499 12 31 C7.49584866 29.49861622 5.26929512 25.94100919 3 22 C-0.50485435 14.86511794 -0.32600728 7.81210037 0 0 Z " fill="#F55EB1" transform="translate(217,163)"/>
<path d="M0 0 C1 1 1 1 1.375 4.875 C1.35546875 7.0625 1.35546875 7.0625 1 9 C-1.3125 10.875 -1.3125 10.875 -4 12 C-4.99 12.66 -5.98 13.32 -7 14 C-9.04296875 14.1953125 -9.04296875 14.1953125 -11.1875 14.125 C-13.0746875 14.063125 -13.0746875 14.063125 -15 14 C-15 10.14767056 -14.82080364 8.01474054 -12.36328125 4.9765625 C-8.4368516 1.31189483 -5.62933707 -1.09840723 0 0 Z " fill="#FE92CD" transform="translate(243,139)"/>
<path d="M0 0 C0.66 0 1.32 0 2 0 C3.0063655 2.43504509 4.00526413 4.87270864 5 7.3125 C5.28617187 8.00279297 5.57234375 8.69308594 5.8671875 9.40429688 C7.08910744 12.41545674 8 14.71886984 8 18 C3.38 18 -1.24 18 -6 18 C-5.19950264 13.19701584 -4.32420375 9.97893173 -2.4375 5.625 C-1.98246094 4.56539063 -1.52742188 3.50578125 -1.05859375 2.4140625 C-0.70925781 1.61742187 -0.35992187 0.82078125 0 0 Z " fill="#F5F5F0" transform="translate(478,297)"/>
<path d="M0 0 C3 0.8125 3 0.8125 5 2 C5.33 2.99 5.66 3.98 6 5 C5.67 5.66 5.34 6.32 5 7 C3.68 7 2.36 7 1 7 C1 7.99 1 8.98 1 10 C-3.62 10 -8.24 10 -13 10 C-12.51171875 3.9453125 -12.51171875 3.9453125 -12 2 C-7.94033751 -0.70644166 -4.7571671 -0.40894945 0 0 Z " fill="#FE99D2" transform="translate(258,176)"/>
<path d="M0 0 C5.94 0 11.88 0 18 0 C16.68 1.65 15.36 3.3 14 5 C13.7525 5.7425 13.505 6.485 13.25 7.25 C12 9 12 9 10.1015625 9.46875 C8.07610855 9.72459681 6.03731316 9.86856044 4 10 C5.65 8.35 7.3 6.7 9 5 C4.545 3.02 4.545 3.02 0 1 C0 0.67 0 0.34 0 0 Z " fill="#F763B0" transform="translate(255,127)"/>
<path d="M0 0 C-0.25375209 3.72169726 -0.60373916 5.55712024 -3.125 8.375 C-6.6434352 10.36368076 -9.01997685 10.31215868 -13 10 C-12.64582169 7.19099964 -12.21351117 6.18543998 -10.0390625 4.296875 C-8.84410156 3.53117188 -8.84410156 3.53117188 -7.625 2.75 C-6.83351563 2.22921875 -6.04203125 1.7084375 -5.2265625 1.171875 C-3 0 -3 0 0 0 Z " fill="#FF89C9" transform="translate(331,193)"/>
<path d="M0 0 C2.05078125 0.03255208 4.1015625 0.06510417 6.15234375 0.09765625 C6.15234375 0.42765625 6.15234375 0.75765625 6.15234375 1.09765625 C4.72921875 1.46890625 4.72921875 1.46890625 3.27734375 1.84765625 C0.06541184 2.78336395 0.06541184 2.78336395 -1.22265625 5.22265625 C-1.42890625 5.84140625 -1.63515625 6.46015625 -1.84765625 7.09765625 C0.62734375 8.08765625 0.62734375 8.08765625 3.15234375 9.09765625 C3.15234375 9.42765625 3.15234375 9.75765625 3.15234375 10.09765625 C-0.47765625 10.42765625 -4.10765625 10.75765625 -7.84765625 11.09765625 C-7.84765625 6.09765625 -7.84765625 6.09765625 -5.41015625 3.34765625 C-4.56453125 2.60515625 -3.71890625 1.86265625 -2.84765625 1.09765625 C-1.84765625 0.09765625 -1.84765625 0.09765625 0 0 Z " fill="#FF89C9" transform="translate(256.84765625,150.90234375)"/>
<path d="M0 0 C2.99972349 3.78912441 5.47510809 7.88831832 8 12 C2.7141451 12.50341475 0.13445849 11.26910671 -4 8 C-4.33 7.34 -4.66 6.68 -5 6 C-3.68 6.33 -2.36 6.66 -1 7 C-0.67 4.69 -0.34 2.38 0 0 Z " fill="#FF86C8" transform="translate(277,161)"/>
<path d="M0 0 C6.17784711 0.33697348 6.17784711 0.33697348 8.9375 2.5625 C9.288125 3.036875 9.63875 3.51125 10 4 C6.17010894 5.80230168 3.21878192 6.19622241 -1 6 C-1.625 4.125 -1.625 4.125 -2 2 C-1.34 1.34 -0.68 0.68 0 0 Z " fill="#FFA1D4" transform="translate(255,129)"/>
<path d="M0 0 C-0.125 1.75 -0.125 1.75 -1 4 C-6.11111111 8 -6.11111111 8 -10 8 C-9.67372714 4.98197607 -9.38918764 3.40308719 -7.25 1.1875 C-4.62847443 -0.19608294 -2.92325122 -0.24360427 0 0 Z " fill="#FFEBF7" transform="translate(255,178)"/>
<path d="M0 0 C2 3 2 3 3 7 C-2.61 7 -8.22 7 -14 7 C-14 6.34 -14 5.68 -14 5 C-9.38 4.67 -4.76 4.34 0 4 C0 2.68 0 1.36 0 0 Z " fill="#AA5B90" transform="translate(510,335)"/>
<path d="M0 0 C1.65 0 3.3 0 5 0 C5 2.64 5 5.28 5 8 C3.35 8 1.7 8 0 8 C0 5.36 0 2.72 0 0 Z " fill="#FE93D1" transform="translate(221,164)"/>
<path d="M0 0 C2 2 2 2 3 8 C-1.62 8 -6.24 8 -11 8 C-10.67 6.02 -10.34 4.04 -10 2 C-9.67 3.32 -9.34 4.64 -9 6 C-6.03 6.33 -3.06 6.66 0 7 C0 4.69 0 2.38 0 0 Z " fill="#E7D3DD" transform="translate(483,307)"/>
<path d="M0 0 C1.98 0 3.96 0 6 0 C6.33 1.32 6.66 2.64 7 4 C4.03 4 1.06 4 -2 4 C-1.34 2.68 -0.68 1.36 0 0 Z " fill="#FFF0F8" transform="translate(257,153)"/>
<path d="M0 0 C1.4540625 0.0309375 1.4540625 0.0309375 2.9375 0.0625 C2.6075 1.3825 2.2775 2.7025 1.9375 4.0625 C-0.3725 4.3925 -2.6825 4.7225 -5.0625 5.0625 C-3.9375 0.08035714 -3.9375 0.08035714 0 0 Z " fill="#FFEDF7" transform="translate(296.0625,134.9375)"/>
<path d="M0 0 C0.33 0 0.66 0 1 0 C1 1.65 1 3.3 1 5 C2.65 5 4.3 5 6 5 C5.49396008 7.16874252 5.00016187 8.99967627 4 11 C3.34 11 2.68 11 2 11 C-0.32590854 7.36576791 -0.16265833 4.22911669 0 0 Z " fill="#FF82C9" transform="translate(220,167)"/>
<path d="M0 0 C0.66 0.33 1.32 0.66 2 1 C-1.63 4.63 -5.26 8.26 -9 12 C-9.66 11.67 -10.32 11.34 -11 11 C-9.73347137 9.53792657 -8.46161082 8.08047074 -7.1875 6.625 C-6.47980469 5.81289062 -5.77210938 5.00078125 -5.04296875 4.1640625 C-3 2 -3 2 0 0 Z " fill="#A8277F" transform="translate(233,127)"/>
<path d="M0 0 C1.32 0.33 2.64 0.66 4 1 C3.34 2.65 2.68 4.3 2 6 C-0.3431213 5.74438677 -2.67843403 5.40729228 -5 5 C-5.33 4.34 -5.66 3.68 -6 3 C-4.35 3 -2.7 3 -1 3 C-0.67 2.01 -0.34 1.02 0 0 Z " fill="#FE77C0" transform="translate(321,185)"/>
<path d="M0 0 C2.0625 0.4375 2.0625 0.4375 4 1 C2 3 2 3 -0.6015625 3.1953125 C-1.59929687 3.17210937 -2.59703125 3.14890625 -3.625 3.125 C-5.12933594 3.09792969 -5.12933594 3.09792969 -6.6640625 3.0703125 C-7.43492187 3.04710937 -8.20578125 3.02390625 -9 3 C-9.33 3.99 -9.66 4.98 -10 6 C-10.33 5.34 -10.66 4.68 -11 4 C-10.67 3.34 -10.34 2.68 -10 2 C-7.96875 1.62109375 -7.96875 1.62109375 -5.5 1.4375 C-2.45018475 1.4207737 -2.45018475 1.4207737 0 0 Z " fill="#DAB6CD" transform="translate(359,190)"/>
<path d="M0 0 C1.32 0 2.64 0 4 0 C3.75 1.875 3.75 1.875 3 4 C0.9375 5.25 0.9375 5.25 -1 6 C-1.042721 4.33388095 -1.04063832 2.66617115 -1 1 C-0.67 0.67 -0.34 0.34 0 0 Z " fill="#FFF0F9" transform="translate(313,173)"/>
<path d="M0 0 C0.66 0.33 1.32 0.66 2 1 C-0.64 3.64 -3.28 6.28 -6 9 C-6 6 -6 6 -3.5625 3.375 C-2.716875 2.59125 -1.87125 1.8075 -1 1 C-0.67 0.67 -0.34 0.34 0 0 Z " fill="#DDCCD5" transform="translate(112,290)"/>
<path d="M0 0 C0.66 0 1.32 0 2 0 C2 1.65 2 3.3 2 5 C0.68 5.33 -0.64 5.66 -2 6 C-1.125 1.125 -1.125 1.125 0 0 Z " fill="#FFE3F4" transform="translate(223,165)"/>
<path d="M0 0 C0.66 0 1.32 0 2 0 C2.33 1.32 2.66 2.64 3 4 C1.35 4.66 -0.3 5.32 -2 6 C-1.34 4.02 -0.68 2.04 0 0 Z " fill="#E4CDDA" transform="translate(478,297)"/>
</svg>
